<svg xmlns="http://www.w3.org/2000/svg" fill="none" viewBox="0 0 121.3 68.86">
<path fill-rule="evenodd" clip-rule="evenodd" d="M62.8734 9.25803C65.5291 8.1769 67.6645 7.80882 70.9573 7.80882C75.5685 7.80882 81.1753 9.80059 85.0066 12.6734C86.946 12.0011 88.9572 11.5511 91.0002 11.33C92.6112 11.0916 94.2525 11.041 95.8708 11.2364C110.193 12.2226 121.301 24.1348 121.301 38.5027C121.301 52.5241 110.938 66.5911 96.401 67.6296C95.1935 67.9893 93.2455 68.0822 92.3147 68.1476C89.3899 68.3524 86.4446 68.4596 83.5145 68.5514C74.9744 68.8194 66.4054 68.8935 57.8616 68.8545C50.0216 68.8187 42.1378 68.6977 34.3082 68.287C31.3592 68.1324 28.3858 67.9409 25.452 67.6028C23.7557 67.4074 21.5076 67.1372 19.8955 66.5268C7.80035 62.86 0 50.9254 0 38.5027C0 24.8656 11.294 12.5776 24.8314 11.2856C28.8734 4.44083 36.5383 0 44.5185 0C51.9815 0 58.5602 3.36404 62.8734 9.25804V9.25803Z" fill="#FFDD00"/>
<path fill-rule="evenodd" clip-rule="evenodd" d="M20.5484 64.6192C10.1162 61.4903 2.01465 51.0066 2.01465 38.5027C2.01465 25.9987 12.6704 13.8773 26.063 13.2159C29.5346 6.55975 36.8101 2.01489 44.5183 2.01489C52.2685 2.01489 58.4704 5.91388 62.1487 11.7772C64.8238 10.5248 66.6844 9.82371 70.9571 9.82371C75.1053 9.82371 80.9201 11.7617 84.638 14.9592C86.7225 14.1323 88.9426 13.5757 91.2561 13.329C92.827 13.0931 94.3015 13.0714 95.6799 13.243C108.864 14.1237 119.286 25.0671 119.286 38.5027C119.286 51.9382 109.276 64.8362 96.014 65.636C93.8406 66.996 28.7992 67.8452 20.5484 64.6191V64.6192Z" fill="#006CB5"/>
<path d="M27.4177 53.4255C25.4087 53.4255 23.4672 53.0444 21.595 52.2833C20.1502 51.696 18.8361 50.9179 17.6542 49.9498C16.451 48.9651 16.9611 48.6563 17.4252 48.1286L19.1211 46.1585C19.4068 45.8258 19.6452 45.4324 20.7086 46.2574C21.5286 46.8928 22.4255 47.4325 23.3989 47.8761C24.7694 48.4999 26.1391 48.8123 27.5091 48.8123C29.2141 48.8123 30.5079 48.4627 31.3907 47.7619C32.2735 47.0619 32.7153 46.1332 32.7153 44.9762C32.7153 44.3675 32.6008 43.8496 32.3728 43.4233C32.1442 42.9971 31.8249 42.6243 31.4138 42.3046C31.0028 41.9849 30.5155 41.688 29.9524 41.4142C29.3889 41.1401 28.7727 40.8663 28.103 40.5921L23.9928 38.8109C23.2624 38.5068 22.5392 38.126 21.8233 37.6691C21.1081 37.2125 20.4612 36.6646 19.8825 36.0252C19.3039 35.3858 18.8401 34.6399 18.4897 33.7874C18.1393 32.935 17.9645 31.9608 17.9645 30.8645C17.9645 29.6771 18.2159 28.5736 18.718 27.5535C19.2201 26.5334 19.9129 25.643 20.7957 24.882C21.6785 24.1209 22.7368 23.527 23.9696 23.1008C25.2028 22.6745 26.5501 22.4614 28.0119 22.4614C29.7472 22.4614 31.4214 22.8042 33.0353 23.4891C34.1662 23.9692 35.1867 24.5666 36.0929 25.2786C37.2369 26.1766 36.9522 26.5457 36.591 27.0045L35.0787 28.9016C34.6542 29.4254 34.5238 29.598 33.6078 28.9619C32.9146 28.4797 32.2052 28.0777 31.4824 27.7591C30.4476 27.3028 29.2899 27.0742 28.0119 27.0742C26.5805 27.0742 25.439 27.3863 24.5862 28.0105C23.7338 28.6343 23.3075 29.4944 23.3075 30.5903C23.3075 31.1693 23.4368 31.6635 23.6958 32.0745C23.9548 32.4856 24.3048 32.8512 24.7462 33.1708C25.1876 33.4905 25.6977 33.7799 26.2763 34.0381C26.8543 34.2975 27.4481 34.5485 28.0571 34.792L32.1214 36.4818C33.0049 36.8473 33.8112 37.2736 34.5419 37.7605C35.2726 38.2474 35.9044 38.8109 36.4372 39.4503C36.9696 40.0896 37.3886 40.8283 37.6927 41.6653C37.9976 42.5026 38.1493 43.4696 38.1493 44.5655C38.1493 45.7828 37.9059 46.9246 37.4189 47.9902C36.932 49.0558 36.2241 49.9921 35.2954 50.7991C34.3667 51.606 33.2401 52.2454 31.9163 52.7171C30.5917 53.1892 29.0923 53.4255 27.4177 53.4255V53.4255Z" fill="#FEFEFE"/>
<path d="M58.0306 30.4531H53.868C53.4497 30.4531 52.8421 30.8024 52.508 31.2152L52.4726 31.2586H52.4571C49.9116 34.4308 47.3665 37.6027 44.8207 40.7745H44.6834V22.4915L39.5225 25.3559V52.115C39.5225 52.534 39.8653 52.8768 40.2846 52.8768H43.9213C44.3406 52.8768 44.6834 52.534 44.6834 52.115V47.1681L48.1995 43.1492L51.7408 49.1024C51.7603 49.1573 51.787 49.2151 51.8224 49.2737L53.5356 52.115C53.7867 52.5318 54.3325 52.8768 54.75 52.8768H58.8675C59.2854 52.8768 59.4335 52.5282 59.177 52.115L57.4093 49.2625C57.35 49.1667 57.2753 49.0739 57.1907 48.9886L51.2138 39.5872C53.5725 36.7802 55.9366 34.1238 58.2119 31.2586C58.5431 30.8417 58.4478 30.4531 58.0306 30.4531V30.4531Z" fill="#FEFEFE"/>
<path fill-rule="evenodd" clip-rule="evenodd" d="M40.2846 24.1543L43.9213 22.0545C44.3406 21.8121 44.6834 21.957 44.6834 22.3764V25.2289C44.6834 25.6483 44.3406 26.1887 43.9213 26.431L40.2846 28.5308C39.8653 28.7728 39.5225 28.628 39.5225 28.2086V25.356C39.5225 24.9367 39.8653 24.3963 40.2846 24.1543Z" fill="#FEFEFE"/>
<path d="M65.1797 54.5797C65.4506 54.1495 65.628 53.1742 65.7938 52.6031L57.5278 31.8294L62.8145 31.8464L66.2052 41.4591C66.548 42.4308 66.8677 43.4617 67.187 44.5421C67.5066 45.6229 67.8343 46.6961 68.1687 47.7617H68.3515C68.6253 46.7271 68.907 45.6688 69.1964 44.588C69.4857 43.5069 69.7353 42.455 70.0413 41.4591L73.0801 31.5671H78.1031L70.3606 53.8818C69.9163 55.1634 69.9842 55.1522 69.4362 56.1567C68.8886 57.1613 68.2565 58.0221 67.541 58.7373C66.8258 59.4525 66.0033 60.0008 65.0753 60.3808C64.3822 60.6648 63.6088 60.8428 62.7546 60.9151L65.1797 54.5797H65.1797Z" fill="#FEFEFE"/>
<path fill-rule="evenodd" clip-rule="evenodd" d="M57.7921 30.4534H61.5747C61.9937 30.4534 62.4546 30.7973 62.5984 31.2155L63.5776 34.0681C63.7221 34.4867 63.4963 34.8299 63.0773 34.8299H59.4407C59.022 34.8299 58.5803 34.4799 58.417 34.0681L57.299 31.2524C57.1358 30.8406 57.3727 30.4534 57.7921 30.4534H57.7921Z" fill="#FEFEFE"/>
<path fill-rule="evenodd" clip-rule="evenodd" d="M77.7266 30.4534H74.2127C73.7952 30.4534 73.3187 30.7947 73.1891 31.2155L72.3185 34.0269C72.1881 34.4485 72.3998 34.7891 72.8188 34.7891H76.2312C76.6495 34.7891 77.1089 34.4456 77.2545 34.0269L78.2196 31.2524C78.3656 30.8337 78.1423 30.4534 77.7266 30.4534V30.4534Z" fill="#FEFEFE"/>
<path d="M85.1736 51.5293C83.8653 50.6924 82.738 49.6185 81.7945 48.3098C80.8507 47.0007 80.1272 45.463 79.6251 43.6974C79.1226 41.9314 78.8716 39.9674 78.8716 37.8055C78.8716 35.4005 79.1913 33.2466 79.8306 31.3437C80.4699 29.4408 81.3683 27.8341 82.5249 26.5254C83.6818 25.2163 85.0671 24.2114 86.6806 23.5114C88.2941 22.811 90.0753 22.4609 92.024 22.4609C93.9724 22.4609 95.7538 22.811 97.367 23.5114C98.9805 24.2114 100.373 25.2163 101.546 26.5254C102.718 27.8344 103.624 29.4408 104.264 31.3437C104.903 33.2466 105.222 35.4005 105.222 37.8055C105.222 39.876 104.986 41.7713 104.514 43.4915C104.043 45.2116 103.365 46.7265 102.482 48.036C98.9358 53.2928 90.5517 54.9685 85.1736 51.5293ZM92.024 49.086C93.2117 49.086 94.2772 48.827 95.2207 48.3098C96.1646 47.7921 96.9719 47.0462 97.6412 46.072C98.3109 45.0982 98.8285 43.9101 99.1937 42.5097C99.5589 41.1092 99.742 39.5412 99.742 37.8055C99.742 34.4567 99.0492 31.8302 97.6639 29.9277C96.2791 28.0252 94.3986 27.0737 92.024 27.0737C89.649 27.0737 87.7693 28.0255 86.3841 29.9277C84.9992 31.8306 84.306 34.4567 84.306 37.8055C84.306 39.5412 84.4891 41.1092 84.854 42.5097C85.2195 43.9101 85.7371 45.0982 86.4068 46.072C87.0761 47.0462 87.8834 47.7929 88.8269 48.3098C89.7708 48.827 90.8367 49.086 92.024 49.086Z" fill="#FEFEFE"/>
<path fill-rule="evenodd" clip-rule="evenodd" d="M100.721 55.7961C102.286 56.5966 103.849 56.6699 105.528 56.1581C106.299 55.9229 105.806 53.4594 105.032 53.372C101.461 52.9696 101.827 49.2292 99.3591 46.3781C97.6393 44.391 95.1629 43.4847 92.5521 44.2935C92.0009 44.4643 92.4469 46.1093 92.629 46.546C92.8909 47.1742 93.7141 46.5171 94.957 47.508C95.2806 47.7666 95.4273 47.9245 95.6924 48.2694C97.4692 50.5801 96.8841 53.8333 100.721 55.7961V55.7961Z" fill="#FEFEFE"/>
</svg>