<svg width="950" height="532" viewBox="0 0 950 532" fill="none" xmlns="http://www.w3.org/2000/svg">
<g clip-path="url(#clip0_20_58)">
<path fill-rule="evenodd" clip-rule="evenodd" d="M492.442 72.1854C513.243 63.8409 529.965 61.0114 555.753 61.0114C591.869 61.0114 635.791 76.3717 665.773 98.5175C680.966 93.3495 696.724 89.8554 712.715 88.1524C725.325 86.3043 738.175 85.9287 750.855 87.4304C863.012 95.024 950 186.84 950 297.597C950 405.669 868.851 514.088 754.99 522.086C745.541 524.857 730.284 525.579 722.982 526.07C700.068 527.659 677.008 528.467 654.069 529.189C587.175 531.267 520.078 531.816 453.158 531.528C391.753 531.239 330.026 530.315 268.68 527.168C245.591 525.983 222.296 524.511 199.325 521.884C186.034 520.382 168.431 518.304 155.816 513.597C61.0828 485.33 0.000762939 393.341 0.000762939 297.597C0.000762939 192.5 88.4552 97.7955 194.483 87.8344C226.139 35.0833 286.165 0.839844 348.655 0.839844C407.097 0.839844 458.615 26.7679 492.413 72.1854H492.442Z" fill="#0575E6"/>
</g>
<g clip-path="url(#clip1_20_58)">
<path fill-rule="evenodd" clip-rule="evenodd" d="M492.441 72.1855C513.242 63.8411 529.965 61.0115 555.753 61.0115C591.868 61.0115 635.79 76.3719 665.772 98.5176C680.966 93.3496 696.723 89.8555 712.715 88.1525C725.324 86.3044 738.175 85.9289 750.854 87.4305C863.011 95.0241 949.999 186.84 949.999 297.598C949.999 405.669 868.85 514.088 754.99 522.086C745.54 524.858 730.283 525.58 722.981 526.07C700.067 527.659 677.007 528.467 654.068 529.189C587.174 531.268 520.078 531.816 453.157 531.528C391.752 531.239 330.025 530.315 268.679 527.168C245.59 525.984 222.295 524.511 199.324 521.884C186.033 520.382 168.43 518.304 155.815 513.598C61.082 485.331 0 393.341 0 297.598C0 192.5 88.4544 97.7956 194.483 87.8346C226.138 35.0834 286.164 0.839966 348.655 0.839966C407.096 0.839966 458.614 26.768 492.412 72.1855H492.441Z" fill="#FF0000"/>
</g>
<g clip-path="url(#clip2_20_58)">
<path fill-rule="evenodd" clip-rule="evenodd" d="M492.442 72.1856C513.243 63.8412 529.966 61.0116 555.754 61.0116C591.869 61.0116 635.791 76.372 665.773 98.5177C680.967 93.3497 696.724 89.8556 712.716 88.1526C725.325 86.3045 738.176 85.929 750.855 87.4306C863.012 95.0243 950 186.84 950 297.598C950 405.669 868.851 514.088 754.991 522.086C745.541 524.858 730.284 525.58 722.982 526.07C700.068 527.659 677.008 528.467 654.069 529.189C587.175 531.268 520.079 531.816 453.158 531.528C391.753 531.239 330.026 530.315 268.68 527.168C245.591 525.984 222.296 524.511 199.325 521.884C186.034 520.383 168.431 518.304 155.816 513.598C61.083 485.331 0.000915527 393.341 0.000915527 297.598C0.000915527 192.5 88.4553 97.7957 194.483 87.8347C226.139 35.0836 286.165 0.840088 348.656 0.840088C407.097 0.840088 458.615 26.7682 492.413 72.1856H492.442Z" fill="#EDCD2F"/>
</g>
<g clip-path="url(#clip3_20_58)">
<path fill-rule="evenodd" clip-rule="evenodd" d="M492.438 72.1855C513.239 63.841 529.962 61.0115 555.75 61.0115C591.865 61.0115 635.787 76.3719 665.769 98.5176C680.963 93.3496 696.72 89.8555 712.712 88.1525C725.321 86.3044 738.172 85.9288 750.851 87.4305C863.008 95.0241 949.996 186.84 949.996 297.597C949.996 405.669 868.847 514.088 754.987 522.086C745.537 524.858 730.28 525.58 722.978 526.07C700.064 527.659 677.005 528.467 654.065 529.189C587.171 531.267 520.075 531.816 453.154 531.528C391.75 531.239 330.022 530.315 268.676 527.168C245.587 525.984 222.293 524.511 199.321 521.884C186.03 520.382 168.428 518.304 155.812 513.598C61.0792 485.331 -0.00283813 393.341 -0.00283813 297.597C-0.00283813 192.5 88.4516 97.7956 194.48 87.8345C226.136 35.0834 286.162 0.839966 348.652 0.839966C407.093 0.839966 458.611 26.768 492.409 72.1855H492.438Z" fill="#34A853"/>
</g>
<path fill-rule="evenodd" clip-rule="evenodd" d="M177.397 483.18C99.2036 460.835 38.4731 385.932 38.4731 296.606C38.4731 207.279 118.352 120.682 218.726 115.972C244.754 68.4185 299.279 35.958 357.061 35.958C415.152 35.958 461.62 63.8157 489.191 105.696C509.238 96.758 523.192 91.7539 555.2 91.7539C586.281 91.7539 629.885 105.589 657.735 128.442C673.349 122.528 689.998 118.568 707.351 116.801C719.116 115.116 730.177 114.955 740.505 116.186C839.312 122.475 917.445 200.642 917.445 296.632C917.445 392.623 842.428 484.759 743.032 490.459C726.752 500.173 239.251 506.248 177.426 483.207L177.397 483.18Z" fill="#FEFEFE"/>
<path fill-rule="evenodd" clip-rule="evenodd" d="M600.025 240.515H574.305C571.262 240.515 567.753 242.97 566.82 245.993L560.459 266.23C559.499 269.28 561.062 271.708 564.133 271.708H589.112C592.183 271.708 595.527 269.226 596.597 266.23L603.671 246.235C604.74 243.213 603.095 240.487 600.052 240.487L600.025 240.515Z" fill="#1E1E1E"/>
<path fill-rule="evenodd" clip-rule="evenodd" d="M325.954 195.155L352.578 180.017C355.649 178.263 358.144 179.315 358.144 182.337V202.873C358.144 205.895 355.622 209.781 352.578 211.535L325.954 226.672C322.884 228.427 320.389 227.374 320.389 224.352V203.817C320.389 200.795 322.911 196.909 325.954 195.155Z" fill="#1E1E1E"/>
<path fill-rule="evenodd" clip-rule="evenodd" d="M454.101 240.515H481.794C484.865 240.515 488.238 242.997 489.279 245.993L496.436 266.527C497.505 269.55 495.833 272.005 492.762 272.005H466.138C463.067 272.005 459.832 269.496 458.653 266.527L450.482 246.235C449.275 243.267 451.03 240.487 454.101 240.487V240.515Z" fill="#1E1E1E"/>
<path d="M231.784 405.982C217.088 405.982 202.858 403.23 189.176 397.752C178.592 393.515 168.996 387.93 160.331 380.94C151.53 373.843 155.259 371.631 158.659 367.826L171.079 353.632C173.163 351.231 174.918 348.398 182.705 354.334C188.709 358.922 195.262 362.807 202.392 365.991C212.427 370.497 222.435 372.737 232.47 372.737C244.946 372.737 254.433 370.228 260.876 365.182C267.347 360.136 270.582 353.444 270.582 345.106C270.582 340.734 269.76 336.983 268.087 333.907C266.415 330.831 264.084 328.159 261.068 325.839C258.052 323.545 254.487 321.386 250.375 319.416C246.262 317.447 241.738 315.477 236.83 313.507L206.751 300.689C201.405 298.503 196.112 295.751 190.876 292.459C185.639 289.167 180.895 285.228 176.673 280.613C172.45 275.999 169.05 270.629 166.473 264.504C163.895 258.351 162.635 251.336 162.635 243.456C162.635 234.902 164.471 226.942 168.146 219.602C171.82 212.262 176.892 205.84 183.363 200.362C189.834 194.884 197.566 190.594 206.587 187.545C215.607 184.469 225.478 182.93 236.172 182.93C248.867 182.93 261.123 185.413 272.94 190.324C281.221 193.778 288.679 198.095 295.314 203.222C303.677 209.699 301.593 212.343 298.961 215.662L287.884 229.316C284.786 233.094 283.826 234.335 277.108 229.748C272.035 226.267 266.853 223.379 261.562 221.086C253.994 217.794 245.521 216.148 236.172 216.148C225.698 216.148 217.335 218.387 211.111 222.894C204.859 227.4 201.761 233.58 201.761 241.486C201.761 245.669 202.72 249.203 204.613 252.172C206.504 255.14 209.082 257.758 212.29 260.078C215.526 262.372 219.255 264.477 223.477 266.338C227.699 268.201 232.059 270.008 236.501 271.763L266.25 283.932C272.721 286.577 278.616 289.626 283.963 293.134C289.309 296.642 293.943 300.689 297.837 305.304C301.73 309.918 304.801 315.234 307.022 321.251C309.243 327.296 310.367 334.258 310.367 342.137C310.367 350.907 308.585 359.137 305.02 366.801C301.456 374.464 296.274 381.21 289.474 387.039C282.674 392.841 274.421 397.455 264.742 400.855C255.036 404.255 244.068 405.955 231.812 405.955L231.784 405.982Z" fill="#1E1E1E"/>
<path d="M455.842 240.515H425.38C422.309 240.515 417.867 243.025 415.427 245.993L415.18 246.317H415.07C396.425 269.172 377.808 292.028 359.163 314.857H358.149V183.147L320.366 203.79V396.538C320.366 399.56 322.888 402.016 325.932 402.016H352.556C355.626 402.016 358.121 399.533 358.121 396.538V360.892L383.868 331.938L409.779 374.816C409.915 375.22 410.108 375.625 410.382 376.057L422.912 396.511C424.749 399.507 428.753 401.989 431.796 401.989H461.929C465 401.989 466.07 399.479 464.205 396.511L451.263 375.976C450.825 375.275 450.276 374.627 449.673 374.006L405.912 306.276C423.186 286.065 440.488 266.933 457.131 246.29C459.544 243.295 458.858 240.488 455.815 240.488L455.842 240.515Z" fill="#1E1E1E"/>
<path d="M508.195 414.321C510.17 411.217 511.486 404.201 512.692 400.073L452.179 250.445L490.867 250.58L515.681 319.822C518.203 326.81 520.534 334.258 522.864 342.03C525.195 349.828 527.608 357.546 530.048 365.209H531.392C533.394 357.762 535.45 350.125 537.588 342.354C539.7 334.555 541.537 326.999 543.785 319.822L566.022 248.557H602.79L546.116 409.301C542.853 418.53 543.374 418.449 539.343 425.681C535.34 432.913 530.706 439.119 525.469 444.273C520.232 449.427 514.228 453.366 507.428 456.119C502.355 458.17 496.707 459.438 490.428 459.978L508.168 414.347L508.195 414.321Z" fill="#1E1E1E"/>
<path d="M654.526 392.327C644.955 386.309 636.704 378.565 629.796 369.147C622.886 359.73 617.593 348.639 613.92 335.93C610.245 323.22 608.408 309.053 608.408 293.483C608.408 276.16 610.739 260.644 615.428 246.936C620.116 233.228 626.671 221.652 635.141 212.234C643.617 202.817 653.756 195.558 665.547 190.512C677.367 185.466 690.389 182.956 704.648 182.956C718.907 182.956 731.958 185.466 743.749 190.512C755.563 195.558 765.767 202.79 774.35 212.234C782.927 221.652 789.562 233.228 794.226 246.936C798.914 260.644 801.246 276.16 801.246 293.483C801.246 308.406 799.518 322.06 796.061 334.446C792.61 346.831 787.644 357.76 781.175 367.177C755.208 405.037 693.846 417.126 654.502 392.354L654.526 392.327ZM704.677 374.733C713.366 374.733 721.156 372.872 728.063 369.147C734.971 365.424 740.866 360.054 745.779 353.038C750.686 346.022 754.468 337.468 757.126 327.376C759.789 317.284 761.133 306.005 761.133 293.483C761.133 269.36 756.06 250.444 745.915 236.736C735.77 223.028 722.002 216.174 704.618 216.174C687.24 216.174 673.472 223.028 663.327 236.736C653.182 250.444 648.109 269.36 648.109 293.483C648.109 305.977 649.453 317.284 652.117 327.376C654.774 337.468 658.586 346.022 663.463 353.038C668.376 360.054 674.266 365.424 681.179 369.147C688.086 372.872 695.876 374.733 704.565 374.733H704.677Z" fill="#1E1E1E"/>
<path fill-rule="evenodd" clip-rule="evenodd" d="M768.299 423.064C779.764 428.838 791.193 429.351 803.481 425.681C809.128 423.981 805.511 406.253 799.859 405.605C773.732 402.718 776.419 375.76 758.349 355.225C745.765 340.923 727.641 334.393 708.528 340.222C704.498 341.463 707.759 353.309 709.103 356.439C711.02 360.973 717.058 356.224 726.132 363.375C728.487 365.236 729.588 366.37 731.506 368.852C744.504 385.502 740.225 408.924 768.299 423.064Z" fill="#1E1E1E"/>
<defs>
<clipPath id="clip0_20_58">
<rect width="949.999" height="530.759" fill="white" transform="translate(0.000457764 0.839844)"/>
</clipPath>
<clipPath id="clip1_20_58">
<rect width="492.757" height="531.231" fill="white" transform="translate(0 0.44397)"/>
</clipPath>
<clipPath id="clip2_20_58">
<rect width="636.499" height="280.25" fill="white" transform="translate(0.000457764 251.006)"/>
</clipPath>
<clipPath id="clip3_20_58">
<rect width="501.916" height="228" fill="white" transform="translate(448.084 303.256)"/>
</clipPath>
</defs>
</svg>
